<svg xmlns="http://www.w3.org/2000/svg" width="80" height="80" viewbox="0 0 80 80">
    <circle cx="40" cy="40" r="40" fill="#006FFD"/>
    <path fill="#fff" d="M31.946 22.904c-1.612.216-3.44.698-3.808.99-.369.293-.407.737-.09 1.029.306.28.661.267 1.74-.038 2.196-.622 6.081-.813 9.204-.445 1.65.19 8.328 1.359 23.283 4.063 4.8.876 8.874 1.587 9.04 1.587.672 0 .888-1.13.266-1.397-.267-.114-9.064-1.713-23.766-4.329-3.91-.698-7.82-1.345-8.696-1.447-1.879-.229-5.56-.229-7.173-.013M26.69 26.027c-.52.051-1.485.203-2.145.318-1.46.266-1.612.393-3.758 2.983-4.329 5.205-6.17 8.138-6.88 10.893-.293 1.092-.318 1.422-.267 2.945.063 1.828.215 2.59.85 4.113.787 1.905 2.59 4.126 4.164 5.18.61.406.648.457.381.52-.165.039-2.742.534-5.75 1.105-3.01.559-5.561 1.054-5.676 1.092-.876.266-.736 1.447.165 1.447.165 0 1.663-.254 3.34-.571l3.02-.584 1.613.342c2.285.483 2.298.496.838.75-1.51.266-1.84.431-1.84.952 0 .444.291.761.71.761.178 0 1.384-.203 2.691-.457 1.308-.24 6.742-1.27 12.086-2.285s11.337-2.145 13.33-2.526c3.34-.635 6.056-1.155 22.078-4.19 3.174-.596 5.878-1.155 6.004-1.218.483-.267.394-1.143-.14-1.32-.139-.039-7.921 1.345-17.303 3.097-18.129 3.377-17.938 3.339-20.858 3.63-4.545.445-8.201.369-10.41-.19-3.91-1.002-6.818-4.164-7.732-8.416-.076-.33-.063-.343.432-.343.622 0 1.244-.242 1.587-.635.19-.203.254-.457.254-.94-.013-.812-.394-1.624-1.143-2.462-.419-.458-.546-.686-.482-.89l.063-.278h10.981l.255-.292c.152-.153 2.094-2.73 4.341-5.726 4.19-5.599 4.367-5.89 3.872-6.31-.114-.088-.634-.24-1.168-.33-1.18-.203-6.195-.317-7.503-.165m6.59 1.6c.063.063-1.486 2.26-3.466 4.9l-3.58 4.8h-9.471l.152-.293c.673-1.295 5.611-7.642 6.792-8.747.355-.33 1.104-.495 3.479-.787.787-.089 5.979.013 6.093.127M15.606 41.541c.14.229.292.546.343.711.076.28.051.292-.343.254q-.418-.038-.457-.267c-.05-.254.077-1.104.165-1.104.026 0 .153.19.292.406m7.084 12.797c.546.14 1.486.292 2.082.355l1.08.102-1.968.38-1.968.382-1.866-.381c-1.028-.216-1.841-.407-1.816-.432.064-.063 2.92-.635 3.25-.647.102-.013.648.101 1.206.24"/><path fill="#fff" d="M46.406 27.665c-.685.419-.698.508-.66 6.284l.038 5.307.432.38.444.394 8.315-.089c4.583-.038 10.182-.114 12.442-.165 3.77-.076 4.138-.101 4.354-.317.305-.305.292-.673-.025-.99-.254-.254-.343-.254-6.983-.178l-6.728.089v-3.885c0-3.63.013-3.897.229-3.897.228 0 5.357.723 5.84.838.279.05.279.076.279 2.374 0 2.577.076 2.881.749 2.881.71 0 .774-.228.774-2.704 0-2.056.013-2.247.229-2.247.114 0 1.32.165 2.678.368 2.489.381 2.819.381 3.085-.038.165-.254.102-.66-.127-.876-.254-.228-.393-.254-7.515-1.295-2.616-.38-7.516-1.091-10.867-1.587-3.365-.482-6.221-.888-6.348-.888-.14 0-.42.114-.635.241m5.535 1.98c2.197.318 4.126.61 4.291.635l.28.064-.026 4.037-.038 4.024-4.596.038-4.608.026v-9.547l.355.076c.19.038 2.146.33 4.342.647M24.9 39.599c-2.158.698-3.567 2.755-2.755 3.999.788 1.193 3.822 1.142 5.015-.076 1.105-1.156 1.054-2.819-.127-3.695-.38-.292-1.574-.419-2.133-.228m1.371 1.561c.229.229.178.787-.101 1.156-.305.38-.94.622-1.689.622-1.206.025-1.333-.305-.444-1.118.813-.736 1.854-1.04 2.234-.66M59.368 45.337c-6.487.888-15.437 2.145-19.868 2.78-9.814 1.396-10.994 1.51-15.158 1.612-2.971.064-3.314.102-3.517.305-.317.317-.305.685.025 1.015.267.267.33.28 3.466.203 3.67-.076 6.678-.368 12.188-1.167 2.107-.318 9.851-1.397 17.215-2.413s14.383-1.993 15.602-2.158c2.323-.317 2.679-.457 2.679-1.028 0-.254-.546-.838-.75-.8-.037.013-5.382.75-11.882 1.65M17.004 45.286c-.267.292-.292.66-.063.978.203.279.876.393 2.97.52 1.333.09 1.6.064 1.88-.114a.64.64 0 0 0 .317-.571c0-.597-.305-.737-1.778-.826-.736-.05-1.726-.114-2.221-.152-.775-.063-.915-.05-1.105.165M17.817 47.507c-.216.216-.19.927.05 1.13.229.178 2.844.356 3.238.216.127-.05.304-.241.38-.406.204-.432-.101-.902-.66-1.016-.71-.14-2.843-.089-3.008.076"/>
</svg>