<svg xmlns="http://www.w3.org/2000/svg" width="165" height="40" viewBox="0 0 165 40">
    <circle cx="20" cy="20" r="20" fill="#006FFD"/>
    <g fill="#fff">
    <path d="M15.973 11.452c-.806.108-1.72.35-1.904.495s-.203.368-.045.514c.153.14.33.134.87-.019 1.098-.31 3.04-.406 4.602-.222.825.095 4.164.68 11.642 2.031 2.4.439 4.437.794 4.52.794.336 0 .444-.565.133-.698-.134-.057-4.533-.857-11.883-2.165-1.955-.349-3.91-.673-4.348-.723-.94-.115-2.78-.115-3.587-.007M13.345 13.014c-.26.025-.743.101-1.072.158-.73.134-.807.197-1.88 1.492-2.164 2.603-3.084 4.069-3.44 5.446-.146.546-.159.711-.133 1.473.032.914.108 1.295.425 2.057.394.952 1.295 2.063 2.082 2.59.305.203.324.228.19.26-.082.019-1.37.266-2.875.552-1.504.28-2.78.527-2.837.546-.438.133-.368.723.082.723.083 0 .832-.126 1.67-.285l1.51-.292.807.171c1.142.241 1.148.248.418.375-.755.133-.92.216-.92.476 0 .222.146.38.356.38.088 0 .691-.1 1.345-.228.654-.12 3.37-.635 6.043-1.142 2.673-.508 5.669-1.073 6.665-1.264 1.67-.317 3.028-.577 11.039-2.094 1.587-.299 2.939-.578 3.002-.61.241-.133.197-.57-.07-.66-.07-.019-3.96.673-8.651 1.549-9.065 1.688-8.97 1.67-10.43 1.815-2.272.223-4.1.184-5.205-.095-1.955-.501-3.408-2.082-3.865-4.208-.038-.165-.032-.172.215-.172.311 0 .622-.12.794-.317.095-.102.127-.229.127-.47-.007-.406-.197-.812-.571-1.231-.21-.229-.273-.343-.242-.445l.032-.14h5.491l.127-.145c.076-.076 1.047-1.365 2.17-2.863 2.095-2.8 2.184-2.945 1.937-3.155-.058-.044-.318-.12-.584-.165-.59-.101-3.098-.159-3.752-.082m3.295.8c.031.031-.743 1.13-1.733 2.45l-1.79 2.4H8.38l.077-.147c.336-.647 2.805-3.821 3.396-4.373.177-.165.552-.248 1.739-.394.393-.044 2.99.006 3.047.063M7.804 20.77c.07.115.146.274.171.356.038.14.025.146-.171.127q-.21-.02-.229-.133c-.025-.127.038-.553.083-.553.012 0 .076.096.146.203m3.542 6.399c.273.07.742.146 1.04.178l.54.05-.984.19-.983.191-.934-.19c-.514-.108-.92-.203-.907-.216.031-.032 1.46-.317 1.625-.324.05-.006.323.051.603.12"/><path d="M23.203 13.833c-.343.209-.349.253-.33 3.142l.02 2.653.215.19.222.197 4.158-.044c2.291-.02 5.09-.057 6.22-.083 1.886-.038 2.07-.05 2.178-.159.152-.152.146-.336-.013-.495-.127-.127-.171-.127-3.491-.089l-3.364.045v-1.942c0-1.816.006-1.95.114-1.95.114 0 2.679.363 2.92.42.14.025.14.038.14 1.187 0 1.288.038 1.44.374 1.44.355 0 .387-.114.387-1.351 0-1.029.007-1.124.114-1.124.058 0 .66.083 1.34.184 1.244.19 1.41.19 1.542-.019.083-.127.051-.33-.063-.438-.127-.114-.197-.127-3.758-.647-1.308-.19-3.758-.546-5.433-.794-1.683-.241-3.11-.444-3.174-.444-.07 0-.21.057-.318.12m2.768.99c1.098.158 2.063.304 2.145.317l.14.032-.013 2.018-.019 2.013-2.298.019-2.304.012v-4.773l.178.038c.095.02 1.073.165 2.17.324M12.45 19.8c-1.079.348-1.783 1.377-1.377 1.999.393.597 1.91.571 2.507-.038.553-.578.527-1.41-.063-1.847-.19-.146-.787-.21-1.067-.115m.686.78c.114.114.089.394-.05.578-.153.19-.47.31-.845.31-.603.014-.667-.151-.222-.558.406-.368.926-.52 1.117-.33M29.684 22.668a1983 1983 0 0 0-9.934 1.39c-4.907.699-5.497.756-7.58.806-1.485.032-1.656.051-1.758.153-.158.159-.152.343.013.508.133.133.165.14 1.733.101 1.835-.038 3.339-.184 6.094-.584 1.054-.158 4.926-.698 8.607-1.206 3.682-.508 7.192-.996 7.802-1.079 1.161-.159 1.339-.228 1.339-.514 0-.127-.273-.419-.375-.4-.019.006-2.691.375-5.941.825M8.502 22.643a.37.37 0 0 0-.032.489c.102.14.438.197 1.486.26.666.044.8.032.94-.057a.32.32 0 0 0 .158-.286c0-.298-.153-.368-.889-.412-.368-.026-.863-.057-1.11-.076-.388-.032-.458-.026-.553.082M8.908 23.754c-.108.108-.095.463.025.565.115.088 1.422.177 1.62.108a.46.46 0 0 0 .19-.204c.101-.215-.051-.45-.33-.507-.356-.07-1.422-.045-1.505.038"/></g><path fill="#006FFD" d="M49.184 25V13.32h2.88V25zm2.56 0v-2.432h4.928V25zm0-4.72v-2.432h4.592v2.432zm0-4.528V13.32h4.832v2.432zm9.886 9.568q-1.632 0-2.752-.512-1.104-.511-1.68-1.392-.56-.896-.56-2.048h2.88q0 .416.224.768.24.336.704.528t1.184.192q.624 0 1.056-.16.449-.16.672-.448.24-.288.24-.688a.87.87 0 0 0-.432-.784q-.432-.288-1.456-.368l-.752-.064q-1.807-.16-2.88-1.136t-1.072-2.592q0-1.152.528-1.968.545-.816 1.52-1.248.976-.432 2.304-.432 1.44 0 2.432.48 1.008.48 1.536 1.36.528.864.528 2.016h-2.88q0-.383-.192-.704a1.27 1.27 0 0 0-.56-.496q-.351-.192-.864-.192-.48 0-.816.16a1.1 1.1 0 0 0-.496.416q-.16.272-.16.608 0 .448.304.768.305.32 1.056.384l.752.064q1.312.112 2.32.576 1.008.449 1.584 1.232.576.785.576 1.92 0 1.136-.592 1.984-.576.848-1.664 1.312-1.071.465-2.592.464m7.26-.32v-9.408h2.975V25zm-3.2-9.088V13.32h9.375v2.592zM73.314 25l3.744-11.68h4.768L85.699 25h-3.072l-3.008-9.6.848.32h-2.112l.864-.32L76.29 25zm3.056-2.704.896-2.432h4.432l.896 2.432zm14.445 3.024q-1.584 0-2.72-.544a5.6 5.6 0 0 1-1.872-1.456 6.3 6.3 0 0 1-1.088-1.968 6.5 6.5 0 0 1-.352-2.048v-.352q0-1.104.352-2.16a5.9 5.9 0 0 1 1.104-1.936 5.4 5.4 0 0 1 1.872-1.376q1.12-.512 2.624-.512 1.6 0 2.832.608a4.97 4.97 0 0 1 2 1.68q.753 1.073.88 2.496h-2.976a2.3 2.3 0 0 0-.48-1.056 2.4 2.4 0 0 0-.944-.688 3.2 3.2 0 0 0-1.312-.256q-.687 0-1.248.24-.543.24-.928.688-.367.432-.576 1.056a4.8 4.8 0 0 0-.192 1.408q0 .784.192 1.408.208.624.592 1.072.4.448.96.688.56.224 1.28.224 1.12 0 1.888-.544.785-.544.944-1.456h2.976a5.24 5.24 0 0 1-.88 2.4q-.736 1.088-1.984 1.744-1.248.64-2.944.64m-.096 4.256q-.432 0-.832-.064a3.7 3.7 0 0 1-.608-.144v-1.824q.24.08.56.144.337.064.736.064.465 0 .688-.096.225-.096.224-.304 0-.16-.16-.24-.144-.064-.496-.064h-.928v-2.272h1.856v1.616l-1.072-.72h.208q1.168 0 1.84.432.672.431.672 1.328 0 .896-.688 1.52t-2 .624M95.887 25l3.744-11.68h4.768L108.271 25h-3.072l-3.008-9.6.848.32h-2.112l.864-.32-2.928 9.6zm3.056-2.704.896-2.432h4.432l.896 2.432zm4.512-9.728q-.528 0-.896-.128a5 5 0 0 1-.672-.32 4 4 0 0 0-.608-.304 1.7 1.7 0 0 0-.72-.144q-.56 0-.944.192a1.9 1.9 0 0 0-.592.464l-.416-1.984q.288-.336.752-.576.48-.24 1.2-.24.528 0 .896.144.368.128.656.304.305.176.608.32.32.128.736.128.56 0 .944-.192.384-.208.608-.464l.416 1.984a2.4 2.4 0 0 1-.768.576q-.48.24-1.2.24m10.206 12.752q-1.6 0-2.784-.544-1.185-.56-1.968-1.456a6.3 6.3 0 0 1-1.168-1.968 6 6 0 0 1-.384-2.048v-.352q0-1.104.4-2.16a5.8 5.8 0 0 1 3.168-3.312q1.183-.512 2.736-.512 1.536 0 2.704.512 1.183.512 1.984 1.376a5.8 5.8 0 0 1 1.2 1.936q.416 1.056.416 2.16v.352q0 .992-.4 2.048a6.3 6.3 0 0 1-1.168 1.968q-.784.896-1.968 1.456-1.185.544-2.768.544m0-2.784q.768 0 1.376-.256.608-.255 1.04-.72.431-.465.656-1.072.224-.624.224-1.344 0-.768-.24-1.392a3 3 0 0 0-.656-1.072 2.9 2.9 0 0 0-1.04-.688 3.7 3.7 0 0 0-1.36-.24q-.768 0-1.376.24a2.9 2.9 0 0 0-1.04.688 3 3 0 0 0-.656 1.072q-.225.624-.224 1.392 0 .72.224 1.344.224.608.656 1.072.431.465 1.04.72.608.256 1.376.256M122.787 25V13.32h2.976V25zm2.656-4.528V18.04h4.336v2.432zm0-4.72V13.32h4.512v2.432zM128.798 25l3.744-11.68h4.768L141.182 25h-3.072l-3.008-9.6.848.32h-2.112l.864-.32-2.928 9.6zm3.056-2.704.896-2.432h4.432l.896 2.432zm1.552-9.84 1.984-2.944h3.072l-2.272 2.944zm12.893 12.864q-1.583 0-2.72-.544a5.6 5.6 0 0 1-1.872-1.456 6.3 6.3 0 0 1-1.088-1.968 6.5 6.5 0 0 1-.352-2.048v-.352q0-1.104.352-2.16a6 6 0 0 1 1.104-1.936 5.45 5.45 0 0 1 1.872-1.376q1.12-.512 2.624-.512 1.6 0 2.832.608a4.97 4.97 0 0 1 2 1.68q.753 1.073.88 2.496h-2.976a2.3 2.3 0 0 0-.48-1.056 2.4 2.4 0 0 0-.944-.688 3.2 3.2 0 0 0-1.312-.256q-.687 0-1.248.24-.543.24-.928.688a3.2 3.2 0 0 0-.576 1.056 4.8 4.8 0 0 0-.192 1.408q0 .784.192 1.408.208.624.592 1.072.4.448.96.688.56.224 1.28.224 1.12 0 1.888-.544.785-.544.944-1.456h2.976a5.24 5.24 0 0 1-.88 2.4q-.735 1.088-1.984 1.744-1.248.64-2.944.64m6.285-.32V13.32h2.976V25zm4.254 0V13.32h2.976V25zm2.656 0v-2.592h4.736V25z" style="mix-blend-mode:darken"/>
</svg>