<svg xmlns="http://www.w3.org/2000/svg" width="175" height="114" viewBox="0 0 175 114">
    <circle cx="88" cy="40" r="40" fill="#006FFD"/>
    <path fill="#fff" d="M79.946 22.904c-1.612.216-3.44.698-3.808.99-.369.293-.407.737-.09 1.029.305.28.661.267 1.74-.038 2.196-.622 6.081-.813 9.204-.445 1.65.19 8.328 1.359 23.283 4.063 4.799.876 8.874 1.587 9.039 1.587.673 0 .889-1.13.267-1.397-.267-.114-9.064-1.713-23.766-4.329-3.91-.698-7.82-1.345-8.696-1.447-1.879-.229-5.56-.229-7.173-.013M74.69 26.027c-.52.051-1.485.203-2.145.318-1.46.266-1.612.393-3.758 2.983-4.329 5.205-6.17 8.138-6.88 10.893-.293 1.092-.318 1.422-.267 2.945.063 1.828.215 2.59.85 4.113.787 1.905 2.59 4.126 4.164 5.18.61.406.648.457.381.52-.165.039-2.742.534-5.75 1.105-3.01.559-5.561 1.054-5.676 1.092-.876.266-.736 1.447.165 1.447.165 0 1.663-.254 3.34-.571l3.02-.584 1.613.342c2.285.483 2.298.496.838.75-1.51.266-1.84.431-1.84.952 0 .444.291.761.71.761.178 0 1.384-.203 2.692-.457 1.307-.24 6.74-1.27 12.085-2.285s11.337-2.145 13.33-2.526c3.34-.635 6.056-1.155 22.078-4.19 3.173-.596 5.878-1.155 6.005-1.218.482-.267.393-1.143-.14-1.32-.14-.039-7.922 1.345-17.304 3.097-18.129 3.377-17.938 3.339-20.858 3.63-4.545.445-8.201.369-10.41-.19-3.91-1.002-6.818-4.164-7.732-8.416-.076-.33-.063-.343.432-.343.622 0 1.244-.242 1.587-.635.19-.203.254-.457.254-.94-.013-.812-.394-1.624-1.143-2.462-.419-.458-.546-.686-.482-.89l.063-.278h10.981000000000002l.254-.292c.153-.153 2.095-2.73 4.342-5.726 4.19-5.599 4.367-5.89 3.872-6.31-.114-.088-.634-.24-1.168-.33-1.18-.203-6.195-.317-7.503-.165m6.59 1.6c.063.063-1.486 2.26-3.466 4.9l-3.58 4.8h-9.471l.152-.293c.673-1.295 5.611-7.642 6.792-8.747.356-.33 1.105-.495 3.479-.787.787-.089 5.979.013 6.093.127M63.606 41.541c.14.229.292.546.343.711.076.28.051.292-.343.254q-.418-.038-.457-.267c-.05-.254.077-1.104.165-1.104.026 0 .153.19.292.406m7.084 12.797c.546.14 1.486.292 2.082.355l1.08.102-1.968.38-1.968.382-1.866-.381c-1.029-.216-1.841-.407-1.816-.432.064-.063 2.92-.635 3.25-.647.102-.013.648.101 1.206.24"/><path fill="#fff" d="M94.406 27.665c-.686.419-.698.508-.66 6.284l.038 5.307.432.38.444.394 8.315-.089c4.583-.038 10.182-.114 12.442-.165 3.77-.076 4.138-.101 4.354-.317.305-.305.292-.673-.025-.99-.254-.254-.343-.254-6.983-.178l-6.728.089v-3.885c0-3.63.013-3.897.228-3.897.229 0 5.358.723 5.84.838.28.05.28.076.28 2.374 0 2.577.076 2.881.749 2.881.711 0 .774-.228.774-2.704 0-2.056.013-2.247.229-2.247.114 0 1.32.165 2.678.368 2.489.381 2.819.381 3.085-.038.165-.254.102-.66-.127-.876-.254-.228-.393-.254-7.515-1.295-2.616-.38-7.516-1.091-10.868-1.587-3.364-.482-6.22-.888-6.347-.888-.14 0-.42.114-.635.241m5.535 1.98c2.196.318 4.126.61 4.291.635l.28.064-.026 4.037-.038 4.024-4.596.038-4.608.026v-9.547l.355.076c.19.038 2.146.33 4.342.647M72.9 39.599c-2.158.698-3.567 2.755-2.755 3.999.788 1.193 3.822 1.142 5.015-.076 1.105-1.156 1.054-2.819-.127-3.695-.38-.292-1.574-.419-2.133-.228m1.371 1.561c.229.229.178.787-.101 1.156-.305.38-.94.622-1.689.622-1.206.025-1.333-.305-.444-1.118.813-.736 1.853-1.04 2.234-.66M107.368 45.337a3978 3978 0 0 0-19.868 2.78c-9.814 1.396-10.994 1.51-15.158 1.612-2.971.064-3.314.102-3.517.305-.317.317-.305.685.025 1.015.267.267.33.28 3.466.203 3.67-.076 6.678-.368 12.188-1.167 2.107-.318 9.851-1.397 17.215-2.413s14.383-1.993 15.602-2.158c2.323-.317 2.679-.457 2.679-1.028 0-.254-.546-.838-.749-.8-.038.013-5.383.75-11.883 1.65M65.004 45.286c-.267.292-.292.66-.063.978.203.279.876.393 2.97.52 1.333.09 1.6.064 1.88-.114a.64.64 0 0 0 .317-.571c0-.597-.305-.737-1.778-.826-.736-.05-1.726-.114-2.221-.152-.775-.063-.914-.05-1.105.165M65.817 47.507c-.216.216-.19.927.05 1.13.229.178 2.844.356 3.238.216.127-.05.304-.241.38-.406.204-.432-.101-.902-.66-1.016-.71-.14-2.843-.089-3.008.076"/><path fill="#006FFD" d="M1.776 107V89.48h4.32V107zm3.84 0v-3.648h7.392V107zm0-7.08v-3.648h6.888v3.648zm0-6.792V89.48h7.248v3.648zm14.83 14.352q-2.45 0-4.129-.768-1.656-.768-2.52-2.088-.84-1.344-.84-3.072h4.32q0 .624.336 1.152.36.504 1.056.792t1.776.288q.936 0 1.584-.24.672-.24 1.008-.672.36-.432.36-1.032 0-.768-.648-1.176-.648-.432-2.184-.552l-1.128-.096q-2.712-.24-4.32-1.704t-1.608-3.888q0-1.728.792-2.952.816-1.224 2.28-1.872t3.456-.648q2.16 0 3.648.72 1.512.72 2.304 2.04.792 1.296.792 3.024h-4.32q0-.576-.288-1.056a1.9 1.9 0 0 0-.84-.744q-.528-.288-1.296-.288-.72 0-1.224.24-.48.216-.744.624-.24.408-.24.912 0 .672.456 1.152t1.584.576l1.128.096q1.968.168 3.48.864 1.512.672 2.376 1.848t.864 2.88-.888 2.976q-.864 1.272-2.496 1.968-1.608.696-3.888.696m10.888-.48V92.888h4.464V107zm-4.8-13.632V89.48h14.064v3.888zM37.972 107l5.616-17.52h7.152L56.548 107H51.94l-4.512-14.4 1.272.48h-3.168l1.296-.48-4.392 14.4zm4.584-4.056 1.344-3.648h6.648l1.344 3.648zm21.668 4.536q-2.376 0-4.08-.816-1.704-.84-2.808-2.184a9.4 9.4 0 0 1-1.632-2.952q-.528-1.584-.528-3.072v-.528q0-1.656.528-3.24a8.9 8.9 0 0 1 1.656-2.904q1.128-1.296 2.808-2.064t3.936-.768q2.4 0 4.248.912 1.872.888 3 2.52 1.128 1.608 1.32 3.744h-4.464a3.4 3.4 0 0 0-.72-1.584 3.6 3.6 0 0 0-1.416-1.032q-.864-.384-1.968-.384-1.032 0-1.872.36a3.9 3.9 0 0 0-1.392 1.032q-.552.648-.864 1.584-.288.936-.288 2.112t.288 2.112q.312.936.888 1.608.6.672 1.44 1.032.84.336 1.92.336 1.68 0 2.832-.816 1.176-.816 1.416-2.184h4.464a7.86 7.86 0 0 1-1.32 3.6q-1.104 1.632-2.976 2.616-1.872.96-4.416.96m-.144 6.384q-.648 0-1.248-.096a5.5 5.5 0 0 1-.912-.216v-2.736q.36.12.84.216a6 6 0 0 0 1.104.096q.696 0 1.032-.144t.336-.456q0-.24-.24-.36-.216-.096-.744-.096h-1.392v-3.408h2.784v2.424l-1.608-1.08h.312q1.752 0 2.76.648t1.008 1.992-1.032 2.28-3 .936M71.831 107l5.616-17.52H84.6L90.407 107H85.8l-4.512-14.4 1.272.48h-3.168l1.296-.48-4.392 14.4zm4.584-4.056 1.344-3.648h6.648l1.344 3.648zm6.768-14.592q-.792 0-1.344-.192a7.4 7.4 0 0 1-1.008-.48 6 6 0 0 0-.912-.456q-.456-.216-1.08-.216-.84 0-1.416.288a2.8 2.8 0 0 0-.888.696l-.624-2.976a3.7 3.7 0 0 1 1.128-.864q.72-.36 1.8-.36.792 0 1.344.216.552.192.984.456.456.264.912.48.48.192 1.104.192.84 0 1.416-.288.576-.312.912-.696l.624 2.976q-.432.504-1.152.864t-1.8.36m15.308 19.128q-2.4 0-4.176-.816-1.776-.84-2.952-2.184a9.5 9.5 0 0 1-1.752-2.952q-.576-1.584-.576-3.072v-.528q0-1.656.6-3.24.6-1.608 1.8-2.904t2.952-2.064q1.776-.768 4.104-.768 2.304 0 4.056.768 1.776.768 2.976 2.064t1.8 2.904a8.8 8.8 0 0 1 .624 3.24v.528q0 1.488-.6 3.072a9.5 9.5 0 0 1-1.752 2.952q-1.176 1.344-2.952 2.184-1.776.816-4.152.816m0-4.176q1.152 0 2.064-.384a4.5 4.5 0 0 0 1.56-1.08q.648-.696.984-1.608a5.9 5.9 0 0 0 .336-2.016q0-1.152-.36-2.088a4.45 4.45 0 0 0-.984-1.608 4.4 4.4 0 0 0-1.56-1.032q-.912-.36-2.04-.36-1.152 0-2.064.36a4.4 4.4 0 0 0-1.56 1.032q-.648.672-.984 1.608t-.336 2.088q0 1.08.336 2.016.336.912.984 1.608t1.56 1.08 2.064.384M112.18 107V89.48h4.464V107zm3.984-6.792V96.56h6.504v3.648zm0-7.08V89.48h6.768v3.648zM121.197 107l5.616-17.52h7.152l5.808 17.52h-4.608l-4.512-14.4 1.272.48h-3.168l1.296-.48-4.392 14.4zm4.584-4.056 1.344-3.648h6.648l1.344 3.648zm2.328-14.76 2.976-4.416h4.608l-3.408 4.416zm19.34 19.296q-2.376 0-4.08-.816-1.704-.84-2.808-2.184a9.4 9.4 0 0 1-1.632-2.952q-.528-1.584-.528-3.072v-.528q0-1.656.528-3.24a8.9 8.9 0 0 1 1.656-2.904q1.128-1.296 2.808-2.064t3.936-.768q2.4 0 4.248.912 1.872.888 3 2.52 1.128 1.608 1.32 3.744h-4.464a3.4 3.4 0 0 0-.72-1.584 3.6 3.6 0 0 0-1.416-1.032q-.864-.384-1.968-.384-1.032 0-1.872.36a3.9 3.9 0 0 0-1.392 1.032q-.552.648-.864 1.584-.288.936-.288 2.112t.288 2.112q.312.936.888 1.608.6.672 1.44 1.032.84.336 1.92.336 1.68 0 2.832-.816 1.176-.816 1.416-2.184h4.464a7.86 7.86 0 0 1-1.32 3.6q-1.104 1.632-2.976 2.616-1.872.96-4.416.96m9.426-.48V89.48h4.464V107zm6.382 0V89.48h4.464V107zm3.984 0v-3.888h7.104V107z" style="mix-blend-mode:darken"/>
</svg>