<svg xmlns="http://www.w3.org/2000/svg" viewBox="0 0 1200 240" fill="none"><g clip-path="url(#a)"><g clip-path="url(#b)"><path fill="#263238" stroke="#263238" stroke-miterlimit="10" d="M437.456 33.795h-9.504V72.23h9.504zM788.128 33.795h-9.504V72.23h9.504zM65.68 73.914l-3.312 6.607h48.576v-1.467l-27.104-.247z"/><path fill="#fff" stroke="#263238" stroke-miterlimit="10" d="M427.952 24.459v54.595H88.528a45.4 45.4 0 0 1-14.112-2.25l-23.392-7.696c-1.37-.618-2.525-1.567-3.34-2.743a7.05 7.05 0 0 1-1.274-3.92 7.02 7.02 0 0 1 1.162-3.948c.78-1.194 1.908-2.17 3.26-2.82l35.824-18.411c13.45-6.52 28.432-10.006 43.68-10.164z"/><path fill="#006FFD" stroke="#263238" stroke-miterlimit="10" d="M47.712 66.378c.795 1.178 1.944 2.125 3.312 2.73l23.392 7.725a45.4 45.4 0 0 0 14.112 2.25h339.424V66.408z"/><path fill="#263238" stroke="#263238" stroke-miterlimit="10" d="M160.416 72.23H116.48a8.2 8.2 0 0 0-2.88.515 7.6 7.6 0 0 0-2.442 1.48 6.8 6.8 0 0 0-1.63 2.215 6.3 6.3 0 0 0-.568 2.614H168c0-.9-.197-1.793-.579-2.625a6.8 6.8 0 0 0-1.646-2.221 7.6 7.6 0 0 0-2.462-1.475 8.2 8.2 0 0 0-2.897-.503Z"/><path fill="#263238" stroke="#263238" stroke-miterlimit="10" d="M120.832 85.879c4.153 0 7.52-3.056 7.52-6.825s-3.367-6.824-7.52-6.824c-4.154 0-7.52 3.055-7.52 6.824 0 3.77 3.366 6.825 7.52 6.825ZM168 79.054c0-1.35-.441-2.669-1.267-3.791-.827-1.122-2.001-1.997-3.375-2.514a8.23 8.23 0 0 0-4.345-.388c-1.459.263-2.799.913-3.85 1.868-1.052.954-1.768 2.17-2.059 3.494a6.24 6.24 0 0 0 .428 3.943c.57 1.247 1.533 2.313 2.77 3.063a8.1 8.1 0 0 0 4.178 1.15c1.994 0 3.907-.72 5.317-1.999S168 80.864 168 79.054ZM396.687 72.23h-43.936c-1.994 0-3.907.719-5.317 1.999s-2.203 3.016-2.203 4.825h58.976a6.26 6.26 0 0 0-.568-2.613 6.8 6.8 0 0 0-1.629-2.216 7.6 7.6 0 0 0-2.442-1.48 8.2 8.2 0 0 0-2.881-.515Z"/><path fill="#263238" stroke="#263238" stroke-miterlimit="10" d="M357.12 85.879c4.153 0 7.52-3.056 7.52-6.825s-3.367-6.824-7.52-6.824c-4.154 0-7.52 3.055-7.52 6.824 0 3.77 3.366 6.825 7.52 6.825ZM396.688 85.879c4.153 0 7.52-3.056 7.52-6.825s-3.367-6.824-7.52-6.824-7.52 3.055-7.52 6.824c0 3.77 3.367 6.825 7.52 6.825Z"/><path fill="#006FFD" stroke="#263238" stroke-miterlimit="10" d="M427.952 58.944V38.819H144.576l-38.784 20.125z"/><path fill="#263238" stroke="#263238" stroke-miterlimit="10" d="M407.376 42.057H193.264v13.649h214.112z"/><path fill="#fff" stroke="#263238" stroke-miterlimit="10" d="M264.688 43.858h-19.584V53.92h19.584zM296.16 43.858h-19.584V53.92h19.584zM327.632 43.858h-19.584V53.92h19.584zM359.104 43.858H339.52V53.92h19.584zM390.576 43.858h-19.584V53.92h19.584z"/><path fill="#263238" stroke="#263238" stroke-miterlimit="10" d="m105.792 40.62 22.56-9.264h-26.224a99 99 0 0 0-15.472 5.953l-15.137 7.696L91.152 42.1z"/><path fill="#CCC" stroke="#263238" stroke-miterlimit="10" d="M102.128 31.356h325.824v-6.824l-297.6 2.657a104 104 0 0 0-28.224 4.167Z"/><path fill="#fff" stroke="#263238" stroke-miterlimit="10" d="M188.24 70.69h-6.048c-1.539-.003-3.014-.56-4.102-1.547-1.089-.988-1.702-2.326-1.706-3.723V40.736c0-1.4.611-2.741 1.7-3.732s2.566-1.55 4.108-1.553h6.048c1.542.004 3.019.562 4.108 1.553s1.7 2.333 1.7 3.732V65.42c-.004 1.397-.618 2.735-1.706 3.723-1.088.987-2.563 1.544-4.102 1.548Zm-6.048-34.208c-1.227 0-2.403.442-3.27 1.229s-1.354 1.854-1.354 2.967v24.684c.004 1.112.493 2.177 1.359 2.963s2.04 1.23 3.265 1.233h6.048c1.225-.004 2.399-.447 3.265-1.233s1.355-1.851 1.359-2.963V40.678c0-1.113-.487-2.18-1.355-2.967-.867-.787-2.043-1.23-3.269-1.23z"/><path fill="#fff" stroke="#263238" stroke-miterlimit="10" d="M189.248 43.858h-8.064v11.848h8.064zM418.64 70.69h-6.048c-1.539-.003-3.014-.56-4.102-1.547-1.088-.988-1.702-2.326-1.706-3.723V40.736c0-1.4.612-2.741 1.7-3.732s2.566-1.55 4.108-1.553h6.048a6.3 6.3 0 0 1 2.226.402A5.9 5.9 0 0 1 422.753 37a5.3 5.3 0 0 1 1.258 1.714 4.85 4.85 0 0 1 .437 2.022V65.42c0 1.398-.612 2.739-1.701 3.727s-2.566 1.544-4.107 1.544Zm-6.048-34.208c-1.226 0-2.402.442-3.269 1.229-.868.787-1.355 1.854-1.355 2.967v24.684c.004 1.112.493 2.177 1.359 2.963s2.04 1.23 3.265 1.233h6.048c1.227 0 2.403-.442 3.27-1.229s1.354-1.854 1.354-2.967V40.678c0-1.113-.487-2.18-1.354-2.967s-2.043-1.23-3.27-1.23z"/><path fill="#fff" stroke="#263238" stroke-miterlimit="10" d="M419.648 43.858h-8.064v11.848h8.064zM152.896 43.858h-8.064v11.848h8.064z"/><path fill="#263238" stroke="#263238" stroke-miterlimit="10" d="m1150.38 73.914 3.32 6.607h-48.56v-1.467l27.08-.247z"/><path fill="#fff" stroke="#263238" stroke-miterlimit="10" d="M788.111 24.459v54.595h339.429c4.81-.004 9.59-.765 14.12-2.25l23.4-7.696c1.36-.622 2.51-1.572 3.32-2.747a7.07 7.07 0 0 0 1.27-3.916 7 7 0 0 0-1.16-3.943c-.77-1.194-1.9-2.171-3.24-2.825l-35.83-18.411c-13.45-6.52-28.43-10.006-43.68-10.164z"/><path fill="#006FFD" stroke="#263238" stroke-miterlimit="10" d="M788.111 66.378v12.676h339.439c4.81-.004 9.59-.765 14.11-2.25l23.4-7.696c1.35-.603 2.5-1.538 3.31-2.7z"/><path fill="#263238" stroke="#263238" stroke-miterlimit="10" d="M1055.66 72.23h43.94c.99 0 1.96.176 2.88.52a7.7 7.7 0 0 1 2.44 1.479c.7.633 1.25 1.386 1.63 2.214.37.828.57 1.715.57 2.611h-58.98c0-1.81.8-3.545 2.21-4.825s3.32-1.999 5.31-1.999Z"/><path fill="#263238" stroke="#263238" stroke-miterlimit="10" d="M1095.25 85.879c4.15 0 7.52-3.056 7.52-6.825s-3.37-6.824-7.52-6.824c-4.16 0-7.52 3.055-7.52 6.824 0 3.77 3.36 6.825 7.52 6.825ZM1055.66 85.879c4.16 0 7.52-3.056 7.52-6.825s-3.36-6.824-7.52-6.824c-4.15 0-7.52 3.055-7.52 6.824 0 3.77 3.37 6.825 7.52 6.825ZM819.392 72.23h43.92a8.2 8.2 0 0 1 2.88.516 7.6 7.6 0 0 1 2.442 1.479 6.8 6.8 0 0 1 1.63 2.216 6.3 6.3 0 0 1 .568 2.613h-58.96a6.3 6.3 0 0 1 .568-2.613 6.8 6.8 0 0 1 1.63-2.216 7.6 7.6 0 0 1 2.442-1.48 8.2 8.2 0 0 1 2.88-.515Z"/><path fill="#263238" stroke="#263238" stroke-miterlimit="10" d="M858.959 85.879c4.154 0 7.52-3.056 7.52-6.825s-3.366-6.824-7.52-6.824c-4.153 0-7.52 3.055-7.52 6.824 0 3.77 3.367 6.825 7.52 6.825ZM819.392 85.879c4.153 0 7.52-3.056 7.52-6.825s-3.367-6.824-7.52-6.824-7.52 3.055-7.52 6.824c0 3.77 3.367 6.825 7.52 6.825Z"/><path fill="#006FFD" stroke="#263238" stroke-miterlimit="10" d="M788.111 58.944V38.819H1071.5l38.79 20.125z"/><path fill="#263238" stroke="#263238" stroke-miterlimit="10" d="M808.703 55.706h214.117V42.057H808.703z"/><path fill="#fff" stroke="#263238" stroke-miterlimit="10" d="M951.392 53.906h19.584V43.843h-19.584zM919.92 53.906h19.584V43.843H919.92zM888.447 53.906h19.584V43.843h-19.584zM856.975 53.906h19.585V43.843h-19.585zM825.504 53.906h19.584V43.843h-19.584z"/><path fill="#263238" stroke="#263238" stroke-miterlimit="10" d="m1110.29 40.62-22.56-9.264h26.22a100 100 0 0 1 15.47 5.953l15.12 7.768-19.61-2.904z"/><path fill="#CCC" stroke="#263238" stroke-miterlimit="10" d="M1113.95 31.356H788.111v-6.824l297.599 2.657c9.59.088 19.11 1.493 28.24 4.167Z"/><path fill="#fff" stroke="#263238" stroke-miterlimit="10" d="M1033.89 70.69h-6.05c-1.54-.003-3.01-.56-4.1-1.547-1.09-.988-1.7-2.326-1.71-3.723V40.736c0-1.4.61-2.741 1.7-3.732s2.57-1.55 4.11-1.553h6.05c1.54.004 3.02.562 4.11 1.553 1.08.99 1.7 2.333 1.7 3.732V65.42c-.01 1.397-.62 2.735-1.71 3.723-1.09.987-2.56 1.544-4.1 1.548Zm-6.05-34.208c-1.23 0-2.4.442-3.27 1.229s-1.35 1.854-1.35 2.967v24.684c0 1.112.49 2.177 1.36 2.963.86.786 2.04 1.23 3.26 1.233h6.05c1.22-.004 2.4-.447 3.26-1.233.87-.786 1.36-1.851 1.36-2.963V40.678c0-1.113-.49-2.18-1.35-2.967-.87-.787-2.05-1.23-3.27-1.23z"/><path fill="#fff" stroke="#263238" stroke-miterlimit="10" d="M1026.83 55.706h8.07V43.858h-8.07zM803.472 70.69h-6.032c-1.542 0-3.021-.554-4.112-1.542s-1.708-2.329-1.712-3.728V40.736c0-1.402.614-2.746 1.706-3.737s2.574-1.548 4.118-1.548h6.032c1.545 0 3.026.556 4.118 1.548 1.093.99 1.706 2.335 1.706 3.737V65.42c-.004 1.4-.62 2.74-1.711 3.728s-2.571 1.543-4.113 1.543Zm-6.032-34.208a5 5 0 0 0-1.774.315 4.7 4.7 0 0 0-1.506.909 4.2 4.2 0 0 0-1.006 1.363 3.85 3.85 0 0 0-.354 1.609v24.684c.004 1.114.495 2.181 1.365 2.968s2.047 1.228 3.275 1.228h6.032c1.228 0 2.406-.442 3.276-1.228.869-.787 1.36-1.854 1.364-2.968V40.678c0-.552-.12-1.1-.353-1.61a4.2 4.2 0 0 0-1.007-1.362 4.7 4.7 0 0 0-1.505-.91 5 5 0 0 0-1.775-.314z"/><path fill="#fff" stroke="#263238" stroke-miterlimit="10" d="M796.415 55.706h8.064V43.858h-8.064zM1063.18 55.706h8.07V43.858h-8.07zM778.624 24.459H437.456v54.595h341.168z"/><path fill="#006FFD" stroke="#263238" stroke-miterlimit="10" d="M778.624 66.378H437.456v12.676h341.168zM778.624 38.834H437.456v20.11h341.168z"/><path fill="#263238" stroke="#263238" stroke-miterlimit="10" d="M759.904 42.057H459.52v13.649h300.384z"/><path fill="#fff" stroke="#263238" stroke-miterlimit="10" d="M499.088 43.858h-19.584V53.92h19.584zM530.576 43.858h-19.584V53.92h19.584zM562.048 43.858h-19.584V53.92h19.584zM593.52 43.858h-19.584V53.92h19.584zM624.992 43.858h-19.584V53.92h19.584zM655.92 43.858h-19.584V53.92h19.584zM686.863 43.858h-19.584V53.92h19.584zM717.792 43.858h-19.584V53.92h19.584zM748.735 43.858h-19.584V53.92h19.584zM454.303 70.69h-6.048c-1.54 0-3.017-.555-4.107-1.543-1.089-.989-1.701-2.33-1.701-3.727V40.736a4.85 4.85 0 0 1 .438-2.022A5.3 5.3 0 0 1 444.143 37a5.9 5.9 0 0 1 1.886-1.147 6.3 6.3 0 0 1 2.226-.402h6.048c1.542.004 3.019.562 4.108 1.553s1.7 2.333 1.7 3.732V65.42c-.004 1.397-.617 2.735-1.706 3.723-1.088.987-2.563 1.544-4.102 1.548Zm-6.048-34.208c-1.226 0-2.402.442-3.269 1.229-.868.787-1.355 1.854-1.355 2.967v24.684c0 1.113.487 2.18 1.355 2.967.867.787 2.043 1.23 3.269 1.23h6.048c1.225-.005 2.399-.448 3.265-1.234s1.355-1.851 1.359-2.963V40.678c0-1.113-.487-2.18-1.354-2.967s-2.043-1.23-3.27-1.23z"/><path fill="#fff" stroke="#263238" stroke-miterlimit="10" d="M455.312 43.858h-8.064v11.848h8.064zM771.2 70.69h-6.08c-1.54-.003-3.014-.56-4.103-1.547-1.088-.988-1.701-2.326-1.705-3.723V40.736c0-1.4.611-2.741 1.7-3.732s2.566-1.55 4.108-1.553h6.08c.764 0 1.52.136 2.226.402A5.9 5.9 0 0 1 775.312 37a5.3 5.3 0 0 1 1.258 1.714c.291.642.44 1.329.438 2.022V65.42c0 1.398-.612 2.739-1.702 3.727s-2.566 1.544-4.106 1.544Zm-6.048-34.208c-1.227 0-2.403.442-3.27 1.229s-1.355 1.854-1.355 2.967v24.684c.005 1.112.493 2.177 1.36 2.963.866.786 2.039 1.23 3.265 1.233h6.048c1.226 0 2.402-.442 3.269-1.229s1.355-1.854 1.355-2.967V40.678c0-1.113-.488-2.18-1.355-2.967s-2.043-1.23-3.269-1.23z"/><path fill="#fff" stroke="#263238" stroke-miterlimit="10" d="M772.175 43.858h-8.064v11.848h8.064z"/><path fill="#263238" stroke="#263238" stroke-miterlimit="10" d="M512.464 72.23h-43.936a8.2 8.2 0 0 0-2.88.516 7.6 7.6 0 0 0-2.442 1.479 6.8 6.8 0 0 0-1.63 2.216 6.3 6.3 0 0 0-.568 2.613H520a6.3 6.3 0 0 0-.574-2.615 6.8 6.8 0 0 0-1.634-2.215 7.6 7.6 0 0 0-2.445-1.479 8.2 8.2 0 0 0-2.883-.515Z"/><path fill="#263238" stroke="#263238" stroke-miterlimit="10" d="M472.879 85.879c4.154 0 7.52-3.056 7.52-6.825s-3.366-6.824-7.52-6.824c-4.153 0-7.52 3.055-7.52 6.824 0 3.77 3.367 6.825 7.52 6.825ZM512.463 85.879c4.154 0 7.52-3.056 7.52-6.825s-3.366-6.824-7.52-6.824c-4.153 0-7.52 3.055-7.52 6.824 0 3.77 3.367 6.825 7.52 6.825ZM749.52 72.23H705.6a8.2 8.2 0 0 0-2.88.516 7.6 7.6 0 0 0-2.442 1.479 6.8 6.8 0 0 0-1.63 2.216 6.3 6.3 0 0 0-.568 2.613h58.96a6.3 6.3 0 0 0-.568-2.613 6.8 6.8 0 0 0-1.63-2.216 7.6 7.6 0 0 0-2.442-1.48 8.2 8.2 0 0 0-2.88-.515Z"/><path fill="#263238" stroke="#263238" stroke-miterlimit="10" d="M709.952 85.879c4.153 0 7.52-3.056 7.52-6.825s-3.367-6.824-7.52-6.824c-4.154 0-7.52 3.055-7.52 6.824 0 3.77 3.366 6.825 7.52 6.825ZM749.52 85.879c4.153 0 7.52-3.056 7.52-6.825s-3.367-6.824-7.52-6.824-7.52 3.055-7.52 6.824c0 3.77 3.367 6.825 7.52 6.825Z"/><path fill="#CCC" stroke="#263238" stroke-miterlimit="10" d="M778.624 24.459H437.456v6.824h341.168z"/><path fill="#263238" d="m100.128 258.492 7.728-18.048c12.369-28.872 34.061-53.679 62.234-71.17 28.173-17.492 61.511-26.85 95.646-26.85s67.473 9.358 95.646 26.85c28.173 17.491 49.865 42.298 62.234 71.17l7.728 18.063V102.199h-331.2zm64.352-94.554a178 178 0 0 0-16.16 11.544v-66.023h23.472v50.123c-2.464 1.409-4.912 2.846-7.312 4.356m38.8-18.513a184 184 0 0 0-23.488 9.874v-45.84h23.488zm8-35.966h23.472v28.154a188 188 0 0 0-23.472 5.271zm31.472 27.036v-27.036h23.472v25.686h-.48c-7.688.004-15.368.455-22.992 1.35m117.92 23.639a183 183 0 0 0-23.488-11.398v-39.204h23.488zm-31.488-14.375a189 189 0 0 0-23.472-6.519v-29.781h23.472zm-31.472-8a199 199 0 0 0-23.488-2.425v-25.875h23.488zm70.96 27.283v-55.583h23.472v73.733a175 175 0 0 0-23.472-18.15m54.672 57.194c-6.361-11.176-14.148-21.634-23.2-31.16v-81.617h23.2zm-315.2-112.777h32.176v72.905c-12.947 11.721-23.807 25.197-32.192 39.945zM.4 102.199v54.174a174 174 0 0 1 26.064 13.533c27.692 17.451 49.004 42.015 61.2 70.538l7.728 18.063V102.199zm24.32 57.935a183 183 0 0 0-23.488-11.398v-39.204H24.72zm31.472 23.058a175 175 0 0 0-23.472-18.15v-55.583h23.472zm31.2 39.044c-6.36-11.176-14.147-21.634-23.2-31.16v-81.617h23.2zM436.881 258.492l7.728-18.048c12.369-28.872 34.061-53.679 62.234-71.17 28.173-17.492 61.511-26.85 95.646-26.85s67.473 9.358 95.646 26.85c28.172 17.491 49.865 42.298 62.234 71.17l7.728 18.063V102.199h-331.2zm64.352-94.554a181 181 0 0 0-16.176 11.544v-66.023h23.488v50.123c-2.464 1.409-4.912 2.846-7.312 4.356m38.784-18.513a185 185 0 0 0-23.472 9.874v-45.84h23.472zm8-35.966h23.488v28.154a189 189 0 0 0-23.488 5.271zm31.488 27.036v-27.036h23.472v25.686h-.496c-7.683.004-15.357.455-22.976 1.35m117.92 23.639a183 183 0 0 0-23.488-11.398v-39.204h23.488zm-31.488-14.375a190 190 0 0 0-23.472-6.519v-29.781h23.472zm-31.472-8a200 200 0 0 0-23.488-2.425v-25.875h23.488zm70.96 27.283v-55.583h23.472v73.733a176 176 0 0 0-23.472-18.15m54.672 57.194c-6.361-11.176-14.148-21.634-23.2-31.16v-81.617h23.2zm-315.2-112.777h32.176v72.905c-12.937 11.725-23.791 25.2-32.176 39.945zM1199.3 148.562c-5.12 2.032-10.15 4.254-15.06 6.737v-45.84h15.06v-7.26H773.696v156.293l7.664-18.048c12.366-28.873 34.056-53.682 62.227-71.175 28.172-17.492 61.51-26.852 95.645-26.852s67.478 9.36 95.648 26.852 49.86 42.302 62.22 71.175l7.48 17.424v.624l.12-.319.13.319v-.624l7.47-17.424c15.93-37.147 47.12-67.238 87-83.94zm-385.492 33.802c-12.936 11.725-23.791 25.2-32.176 39.945v-112.85h32.176zm31.488-22.709a988 988 0 0 0-7.328 4.356 183 183 0 0 0-16.16 11.543v-66.095h23.488zm31.504-14.23a184 184 0 0 0-23.472 9.874v-45.84H876.8zm31.488-7.812a189 189 0 0 0-23.488 5.271v-33.396h23.488zm31.472-2.468h-.56c-7.683.008-15.357.464-22.976 1.365v-27.051h23.472zm31.488 2.614a200 200 0 0 0-23.488-2.425v-25.875h23.44zm31.472 8a190 190 0 0 0-23.52-6.519v-29.781h23.47zm31.49 14.375a182.5 182.5 0 0 0-23.49-11.398v-39.204h23.49zm31.39 23.058c-7.23-6.651-15.09-12.724-23.47-18.15v-55.583h23.47zm31.18 39.044c-6.35-11.176-14.13-21.634-23.18-31.16v-81.617h23.18zm48-39.944c-12.93 11.724-23.79 25.199-32.17 39.944V109.459h32.17zm31.49-22.71a593 593 0 0 0-7.33 4.356 183 183 0 0 0-16.16 11.544v-66.023h23.49z"/><path fill="#fff" stroke="#263238" stroke-miterlimit="10" d="M122.289 162.994H81.297l-8.784-52.083h58.56z"/><path fill="#263238" stroke="#263238" stroke-miterlimit="10" d="M76.433 134.172h50.72l3.92-23.261h-58.56z"/><path fill="#fff" stroke="#263238" stroke-miterlimit="10" d="M121.697 162.995h-40.4v226.541h40.4z"/><path fill="#fff" stroke="#263238" stroke-miterlimit="10" d="M131.025 162.995H71.969v26.223h59.056zM458.368 162.994h-40.976l-8.784-52.083h58.544z"/><path fill="#263238" stroke="#263238" stroke-miterlimit="10" d="M412.528 134.172h50.704l3.92-23.261h-58.544z"/><path fill="#fff" stroke="#263238" stroke-miterlimit="10" d="M457.793 162.995h-40.4v226.541h40.4z"/><path fill="#fff" stroke="#263238" stroke-miterlimit="10" d="M467.12 162.995h-59.056v26.223h59.056zM794.465 162.994h-40.992l-8.785-52.083h58.56z"/><path fill="#263238" stroke="#263238" stroke-miterlimit="10" d="M748.608 134.172h50.704l3.936-23.261h-58.56z"/><path fill="#fff" stroke="#263238" stroke-miterlimit="10" d="M793.873 162.995h-40.4v226.541h40.4z"/><path fill="#fff" stroke="#263238" stroke-miterlimit="10" d="M803.201 162.995h-59.056v26.223h59.056zM1130.54 162.994h-40.97l-8.79-52.083h58.55z"/><path fill="#263238" stroke="#263238" stroke-miterlimit="10" d="M1084.7 134.172h50.71l3.92-23.261h-58.55z"/><path fill="#fff" stroke="#263238" stroke-miterlimit="10" d="M1129.97 162.995h-40.4v226.541h40.4z"/><path fill="#fff" stroke="#263238" stroke-miterlimit="10" d="M1139.3 162.995h-59.06v26.223h59.06zM1199.3 86.474H1.504v24.437H1199.3z"/><path fill="#263238" stroke="#263238" stroke-miterlimit="10" d="M1199.3 86.474H1.504v4.458H1199.3z"/></g></g><defs><clipPath id="a"><path fill="#fff" d="M0 0h1200v240H0z"/></clipPath><clipPath id="b"><path fill="#fff" d="M0-336h1200v726H0z"/></clipPath></defs></svg>