<svg xmlns="http://www.w3.org/2000/svg" viewBox="0 0 24 24">
    <path fill="#000" d="M2.681.052C1.373.272.248 1.42.047 2.747.014 2.967 0 5.967.009 12.21l.014 9.14.132.376c.37 1.045 1.073 1.748 2.118 2.118l.375.132h18.703l.375-.132c1.083-.384 1.829-1.162 2.166-2.26.08-.266.084-.693.084-9.608V2.648l-.13-.375c-.371-1.045-1.074-1.748-2.12-2.118l-.375-.132-9.21-.004C6.941.014 2.82.029 2.68.052m10.702 4.893a7.57 7.57 0 0 1 5.18 3.68c1.471 2.606 1.171 5.91-.746 8.19a7.56 7.56 0 0 1-2.94 2.155c-.562.23-.773.249-.927.094l-.122-.122v-1.284c0-1.43-.023-1.585-.3-1.992l-.16-.235.244-.033c1.364-.182 2.288-.74 2.743-1.668.234-.478.318-.802.38-1.435.05-.562 0-1.106-.15-1.504-.095-.263-.45-.863-.545-.92-.032-.018-.023-.121.024-.3.136-.515-.005-1.663-.211-1.705-.314-.066-1.05.182-1.645.548l-.333.206-.413-.093c-.801-.188-2.278-.17-3.06.032l-.268.066-.36-.22c-.624-.375-1.459-.638-1.67-.525-.042.018-.112.168-.154.323-.122.436-.14.863-.056 1.266.065.31.065.356.004.445-.562.755-.712 1.27-.665 2.227.056 1.03.328 1.715.918 2.297.263.262.45.403.718.53.384.187 1.045.379 1.467.43.14.02.258.043.258.052s-.07.108-.155.22c-.09.113-.183.31-.216.436-.033.127-.07.253-.075.286-.028.094-.492.202-.872.202-.318 0-.398-.019-.66-.155-.249-.127-.347-.216-.624-.586-.37-.487-.492-.59-.825-.717-.267-.103-.506-.113-.623-.028-.118.084-.061.183.257.412.333.24.554.52.75.966.361.792.914 1.144 1.8 1.144.235 0 .507-.014.6-.028l.174-.033v.694c0 .646-.005.698-.103.801-.188.197-.549.113-1.449-.337C5.77 17.32 4.167 14.325 4.57 11.24c.413-3.17 2.92-5.761 6.07-6.291.244-.042.497-.084.563-.094.272-.047 1.777.014 2.18.09"/>
</svg>