<svg xmlns="http://www.w3.org/2000/svg" viewBox="0 0 24 24">
    <path fill="#0E76A8" d="M2.79.052C2.08.155 1.523.446.98.985c-.324.318-.44.478-.595.797C-.01 2.583.024 1.646.024 12c0 10.355-.033 9.418.36 10.22.277.562.835 1.12 1.397 1.396.802.394-.136.36 10.22.36 10.354 0 9.416.034 10.218-.36.319-.155.478-.277.801-.595.32-.324.441-.483.596-.802.394-.802.36.136.36-10.219s.034-9.417-.36-10.218A3.3 3.3 0 0 0 22.219.385c-.806-.394.164-.361-10.055-.366C7.14.014 2.944.03 2.79.052m4.443 4.542c.937.29 1.57 1.322 1.397 2.273a2.073 2.073 0 0 1-2.752 1.604c-.426-.155-.89-.568-1.101-.975a2.074 2.074 0 0 1 .904-2.79c.446-.224 1.041-.267 1.552-.112m9.206 4.74c1.735.238 2.69 1.377 2.949 3.51.047.403.06 1.28.065 3.46v2.924l-.136.136-.136.136h-2.68l-.15-.136-.155-.136-.024-2.878c-.023-2.77-.028-2.883-.122-3.164-.272-.797-.722-1.139-1.495-1.139q-1.173-.001-1.608 1.285l-.127.38-.023 2.756-.023 2.76-.155.136-.15.136H9.88l-.136-.136-.135-.136V9.75l.135-.15.136-.154 1.261-.014c1.191-.01 1.266-.005 1.411.084.202.122.244.253.244.736v.398l.188-.239c.698-.881 1.978-1.284 3.454-1.078m-8.54.163c.318.15.304-.117.304 4.988 0 3.989-.01 4.617-.07 4.734-.145.277-.164.281-1.51.281-.853 0-1.265-.018-1.35-.056-.267-.122-.257.09-.257-4.983 0-3.21.014-4.701.051-4.762a.6.6 0 0 1 .197-.183c.136-.084.244-.094 1.313-.094.965 0 1.195.014 1.322.075"/>
</svg>